<?xml version="1.0" standalone="no"?>
<!DOCTYPE svg PUBLIC "-//W3C//DTD SVG 20010904//EN"
 "http://www.w3.org/TR/2001/REC-SVG-20010904/DTD/svg10.dtd">
<svg version="1.0" xmlns="http://www.w3.org/2000/svg"
 width="148.000000pt" height="148.000000pt" viewBox="0 0 148.000000 148.000000"
 preserveAspectRatio="xMidYMid meet">
<metadata>
Created by potrace 1.14, written by Peter Selinger 2001-2017
</metadata>
<g transform="translate(0.000000,148.000000) scale(0.100000,-0.100000)"
fill="#000000" stroke="none">
<path d="M994 1220 c0 -69 1 -97 3 -62 2 34 2 90 0 125 -2 34 -3 6 -3 -63z"/>
<path d="M535 1210 c-3 -5 -1 -10 4 -10 6 0 11 5 11 10 0 6 -2 10 -4 10 -3 0
-8 -4 -11 -10z"/>
<path d="M830 1196 c0 -13 -6 -27 -12 -29 -8 -3 -6 -6 5 -6 12 -1 17 7 17 29
0 17 -2 30 -5 30 -3 0 -5 -11 -5 -24z"/>
<path d="M748 1180 c2 -16 7 -30 11 -30 4 0 6 14 3 30 -2 17 -7 30 -11 30 -4
0 -6 -13 -3 -30z"/>
<path d="M411 1184 c0 -11 3 -14 6 -6 3 7 2 16 -1 19 -3 4 -6 -2 -5 -13z"/>
<path d="M608 1163 c7 -3 16 -2 19 1 4 3 -2 6 -13 5 -11 0 -14 -3 -6 -6z"/>
<path d="M1121 1153 c7 -12 15 -20 18 -17 3 2 -3 12 -13 22 -17 16 -18 16 -5
-5z"/>
<path d="M414 1030 c0 -69 1 -97 3 -62 2 34 2 90 0 125 -2 34 -3 6 -3 -63z"/>
<path d="M534 1116 c-8 -21 -1 -49 14 -52 7 -1 8 0 2 3 -13 6 -13 53 -1 53 5
0 12 -10 14 -22 5 -21 5 -21 4 1 -2 28 -24 40 -33 17z"/>
<path d="M681 1130 c-2 -3 -3 -20 -4 -38 -2 -26 2 -32 18 -32 12 0 16 3 8 8
-6 4 -13 21 -16 37 -2 17 -5 28 -6 25z"/>
<path d="M751 1130 c-7 -15 -5 -68 2 -61 5 5 7 21 4 37 -2 16 -5 27 -6 24z"/>
<path d="M805 1119 c-4 -6 -4 -13 -1 -16 3 -4 6 -1 6 5 0 6 8 13 18 15 15 4
15 5 0 6 -9 0 -20 -4 -23 -10z"/>
<path d="M465 1110 c-3 -5 -1 -10 4 -10 6 0 11 5 11 10 0 6 -2 10 -4 10 -3 0
-8 -4 -11 -10z"/>
<path d="M943 1099 c-4 -14 -12 -19 -24 -16 -11 3 -17 1 -13 -4 10 -16 36 -10
41 10 3 11 12 22 22 24 13 4 13 5 -2 6 -11 1 -21 -8 -24 -20z"/>
<path d="M832 1090 c0 -14 2 -19 5 -12 2 6 2 18 0 25 -3 6 -5 1 -5 -13z"/>
<path d="M1171 1080 c14 -31 19 -36 19 -24 0 6 -7 19 -16 30 -14 18 -14 18 -3
-6z"/>
<path d="M1015 1080 c-15 -6 -11 -8 16 -7 21 1 35 5 32 10 -5 9 -22 8 -48 -3z"/>
<path d="M470 1070 c0 -6 7 -10 15 -10 8 0 15 2 15 4 0 2 -7 6 -15 10 -8 3
-15 1 -15 -4z"/>
<path d="M679 1033 c-5 -45 -3 -63 6 -63 7 0 9 14 7 35 -4 32 -11 47 -13 28z"/>
<path d="M929 1023 c-13 -16 -12 -17 4 -4 16 13 21 21 13 21 -2 0 -10 -8 -17
-17z"/>
<path d="M1002 1025 c9 -11 18 -31 21 -45 l4 -25 2 26 c0 16 -8 33 -21 45 -23
19 -23 19 -6 -1z"/>
<path d="M1061 1024 c0 -11 3 -14 6 -6 3 7 2 16 -1 19 -3 4 -6 -2 -5 -13z"/>
<path d="M531 1002 c-1 -27 2 -33 17 -30 9 2 18 13 18 26 1 19 1 19 -3 2 -6
-29 -21 -25 -26 8 -4 25 -4 24 -6 -6z"/>
<path d="M606 1022 c-2 -4 -1 -14 5 -22 7 -12 9 -10 9 8 0 23 -5 28 -14 14z"/>
<path d="M749 1028 c-6 -20 -2 -58 6 -58 7 0 10 12 7 30 -4 25 -9 38 -13 28z"/>
<path d="M461 998 c-1 -22 4 -28 19 -28 14 0 20 6 19 23 -1 16 -2 18 -6 5 -6
-25 -21 -22 -26 5 -4 19 -4 18 -6 -5z"/>
<path d="M1207 989 c4 -13 8 -18 11 -10 2 7 -1 18 -6 23 -8 8 -9 4 -5 -13z"/>
<path d="M911 983 c-1 -27 32 -63 57 -63 10 0 27 7 38 16 18 14 18 15 -4 4
-37 -18 -70 -5 -81 33 -7 25 -9 27 -10 10z"/>
<path d="M608 973 c7 -3 16 -2 19 1 4 3 -2 6 -13 5 -11 0 -14 -3 -6 -6z"/>
<path d="M834 965 c10 -8 24 -16 30 -19 6 -2 1 -11 -11 -21 -13 -9 -23 -26
-22 -38 1 -21 2 -19 15 22 3 9 10 6 25 -12 13 -18 25 -24 37 -20 15 6 15 5 3
-10 -7 -9 -21 -17 -30 -18 -10 0 -11 -2 -3 -6 6 -2 26 7 42 20 30 26 22 43
-11 26 -22 -11 -46 15 -31 34 13 15 6 27 -25 45 -31 16 -43 15 -19 -3z"/>
<path d="M796 961 c-4 -5 -2 -20 3 -33 9 -21 9 -20 8 9 -2 36 -3 38 -11 24z"/>
<path d="M1063 931 c7 -32 -10 -56 -28 -41 -15 13 -45 2 -45 -15 0 -7 -6 -16
-12 -18 -8 -3 -6 -6 5 -6 9 -1 17 5 17 13 0 21 18 30 34 17 18 -15 47 18 40
46 -4 15 -1 23 13 26 14 4 13 5 -6 6 -21 1 -23 -2 -18 -28z"/>
<path d="M1232 900 c0 -14 2 -19 5 -12 2 6 2 18 0 25 -3 6 -5 1 -5 -13z"/>
<path d="M653 903 c15 -2 37 -2 50 0 12 2 0 4 -28 4 -27 0 -38 -2 -22 -4z"/>
<path d="M767 890 c3 -11 7 -20 9 -20 2 0 4 9 4 20 0 11 -4 20 -9 20 -5 0 -7
-9 -4 -20z"/>
<path d="M308 873 c7 -3 16 -2 19 1 4 3 -2 6 -13 5 -11 0 -14 -3 -6 -6z"/>
<path d="M797 851 c-4 -17 -3 -21 5 -13 5 5 8 16 6 23 -3 8 -7 3 -11 -10z"/>
<path d="M940 861 c0 -5 7 -15 17 -22 15 -13 15 -12 4 9 -12 23 -21 28 -21 13z"/>
<path d="M1232 810 c0 -19 2 -27 5 -17 2 9 2 25 0 35 -3 9 -5 1 -5 -18z"/>
<path d="M308 813 c6 -2 18 -2 25 0 6 3 1 5 -13 5 -14 0 -19 -2 -12 -5z"/>
<path d="M592 790 c0 -19 2 -27 5 -17 2 9 2 25 0 35 -3 9 -5 1 -5 -18z"/>
<path d="M652 790 c0 -19 2 -27 5 -17 2 9 2 25 0 35 -3 9 -5 1 -5 -18z"/>
<path d="M838 813 c7 -3 16 -2 19 1 4 3 -2 6 -13 5 -11 0 -14 -3 -6 -6z"/>
<path d="M900 803 c0 -10 4 -14 8 -8 4 6 11 13 16 18 5 4 2 7 -7 7 -10 0 -17
-8 -17 -17z"/>
<path d="M930 739 c-47 -40 -86 -75 -88 -79 -4 -9 168 -160 182 -160 6 0 29
17 51 38 22 20 61 56 87 79 l46 42 -88 75 c-49 42 -92 76 -97 76 -5 0 -47 -32
-93 -71z m177 -5 c43 -37 79 -70 81 -74 2 -6 -94 -96 -150 -139 -19 -14 -30
-7 -147 98 l-45 39 30 25 c113 95 140 117 146 117 4 0 42 -30 85 -66z"/>
<path d="M453 793 c9 -2 23 -2 30 0 6 3 -1 5 -18 5 -16 0 -22 -2 -12 -5z"/>
<path d="M441 758 c-1 -24 3 -28 27 -27 22 1 23 2 5 6 -13 2 -24 13 -26 26 -4
18 -5 17 -6 -5z"/>
<path d="M502 755 c0 -16 2 -22 5 -12 2 9 2 23 0 30 -3 6 -5 -1 -5 -18z"/>
<path d="M1221 724 c0 -11 3 -14 6 -6 3 7 2 16 -1 19 -3 4 -6 -2 -5 -13z"/>
<path d="M288 703 c6 -2 18 -2 25 0 6 3 1 5 -13 5 -14 0 -19 -2 -12 -5z"/>
<path d="M691 688 c-1 -25 -32 -58 -112 -119 l-69 -54 0 -56 c0 -52 -3 -59
-35 -88 -19 -17 -35 -34 -35 -38 0 -4 18 11 40 32 37 36 40 43 40 92 0 50 2
53 47 90 101 82 135 118 130 139 -4 16 -5 16 -6 2z"/>
<path d="M267 651 c4 -3 24 -20 43 -36 l35 -30 -28 32 c-26 28 -27 32 -10 36
10 2 3 4 -15 4 -18 0 -29 -3 -25 -6z"/>
<path d="M358 653 c7 -3 16 -2 19 1 4 3 -2 6 -13 5 -11 0 -14 -3 -6 -6z"/>
<path d="M638 653 c7 -3 16 -2 19 1 4 3 -2 6 -13 5 -11 0 -14 -3 -6 -6z"/>
<path d="M831 596 c-9 -11 0 -24 44 -65 76 -68 140 -121 150 -121 4 0 44 32
89 72 133 118 122 104 95 119 -21 11 -23 11 -11 -3 11 -13 -1 -27 -79 -97 -51
-45 -96 -80 -100 -79 -4 2 -49 38 -99 82 -73 63 -88 81 -79 92 6 8 9 14 6 14
-2 0 -10 -6 -16 -14z"/>
<path d="M350 587 c0 -2 15 -16 33 -33 l32 -29 -29 33 c-28 30 -36 37 -36 29z"/>
<path d="M427 519 c7 -7 15 -10 18 -7 3 3 -2 9 -12 12 -14 6 -15 5 -6 -5z"/>
<path d="M831 506 c-9 -10 8 -30 81 -96 51 -45 98 -84 105 -87 6 -2 56 35 112
83 77 68 98 91 89 101 -6 7 -15 13 -20 13 -7 0 -6 -5 1 -13 10 -13 -37 -61
-161 -165 -16 -13 -27 -6 -113 68 -75 66 -93 86 -84 96 6 8 9 14 6 14 -2 0
-10 -6 -16 -14z"/>
<path d="M808 343 c7 -3 16 -2 19 1 4 3 -2 6 -13 5 -11 0 -14 -3 -6 -6z"/>
<path d="M718 333 c7 -3 16 -2 19 1 4 3 -2 6 -13 5 -11 0 -14 -3 -6 -6z"/>
<path d="M492 238 c-7 -7 -12 -25 -12 -40 0 -21 6 -29 25 -34 14 -4 29 -4 32
0 4 3 -1 6 -9 6 -22 0 -40 24 -32 44 3 9 15 16 25 16 10 0 19 5 19 10 0 14
-33 13 -48 -2z"/>
<path d="M860 205 c0 -25 5 -45 10 -45 6 0 10 20 10 45 0 25 -4 45 -10 45 -5
0 -10 -20 -10 -45z"/>
<path d="M555 210 c-11 -17 5 -50 24 -50 24 0 43 23 35 44 -7 18 -49 22 -59 6z
m43 -17 c-5 -25 -28 -28 -28 -4 0 12 6 21 16 21 9 0 14 -7 12 -17z"/>
<path d="M630 191 c0 -17 5 -31 10 -31 6 0 10 11 10 25 0 14 5 25 10 25 6 0
10 -11 10 -25 0 -14 5 -25 10 -25 6 0 10 11 10 25 0 14 5 25 10 25 6 0 10 -11
10 -25 0 -14 5 -25 11 -25 6 0 9 12 7 28 -3 25 -7 27 -50 30 -47 3 -48 3 -48
-27z"/>
<path d="M751 173 c1 -26 3 -40 6 -31 2 9 14 18 26 20 16 2 22 10 22 28 0 20
-6 26 -27 28 -27 3 -28 2 -27 -45z m39 16 c0 -24 -23 -21 -28 4 -2 10 3 17 12
17 10 0 16 -9 16 -21z"/>
<path d="M820 190 c0 -16 5 -30 10 -30 6 0 10 14 10 30 0 17 -4 30 -10 30 -5
0 -10 -13 -10 -30z"/>
<path d="M902 193 c2 -22 9 -29 28 -30 l25 -3 -25 12 -25 11 23 5 c29 4 24 26
-7 30 -19 3 -22 0 -19 -25z m35 11 c-3 -3 -12 -4 -19 -1 -8 3 -5 6 6 6 11 1
17 -2 13 -5z"/>
<path d="M970 189 c0 -18 4 -28 10 -24 6 4 7 11 4 17 -4 6 1 17 11 25 18 12
18 13 -3 13 -18 0 -22 -6 -22 -31z"/>
</g>
</svg>
